<svg viewBox="0 0 1218 414" xmlns="http://www.w3.org/2000/svg"><defs><marker id="rfarrow" markerWidth="9" markerHeight="9" refX="6" refY="3" orient="auto" markerUnits="strokeWidth"><path d="M0,0 L6,3 L0,6 Z" fill="#94a3b8"/></marker></defs><rect x="20" y="66" width="272" height="336" rx="12" fill="#ede9fe" fill-opacity="0.4"/><rect x="20" y="16" width="272" height="40" rx="10" fill="#ede9fe"/><text x="156" y="41" text-anchor="middle" font-family="ui-sans-serif, system-ui, sans-serif" font-size="13" font-weight="700" letter-spacing="1" fill="#6d28d9">SET UP</text><rect x="322" y="66" width="272" height="336" rx="12" fill="#fef3c7" fill-opacity="0.4"/><rect x="322" y="16" width="272" height="40" rx="10" fill="#fef3c7"/><text x="458" y="41" text-anchor="middle" font-family="ui-sans-serif, system-ui, sans-serif" font-size="13" font-weight="700" letter-spacing="1" fill="#b45309">RUN</text><rect x="624" y="66" width="272" height="336" rx="12" fill="#e0f2fe" fill-opacity="0.4"/><rect x="624" y="16" width="272" height="40" rx="10" fill="#e0f2fe"/><text x="760" y="41" text-anchor="middle" font-family="ui-sans-serif, system-ui, sans-serif" font-size="13" font-weight="700" letter-spacing="1" fill="#0369a1">READ</text><rect x="926" y="66" width="272" height="336" rx="12" fill="#d1fae5" fill-opacity="0.4"/><rect x="926" y="16" width="272" height="40" rx="10" fill="#d1fae5"/><text x="1062" y="41" text-anchor="middle" font-family="ui-sans-serif, system-ui, sans-serif" font-size="13" font-weight="700" letter-spacing="1" fill="#047857">ACT</text><line x1="156.0" y1="148.0" x2="156.0" y2="172.0" stroke="#94a3b8" stroke-width="2" marker-end="url(#rfarrow)"/><line x1="156.0" y1="242.0" x2="156.0" y2="266.0" stroke="#94a3b8" stroke-width="2" marker-end="url(#rfarrow)"/><line x1="156.0" y1="320.0" x2="156.0" y2="344.0" stroke="#94a3b8" stroke-width="2" marker-end="url(#rfarrow)"/><line x1="272.0" y1="372.0" x2="340.0" y2="372.0" stroke="#94a3b8" stroke-width="2" marker-end="url(#rfarrow)"/><line x1="574.0" y1="372.0" x2="642.0" y2="372.0" stroke="#94a3b8" stroke-width="2" marker-end="url(#rfarrow)"/><line x1="876.0" y1="372.0" x2="944.0" y2="372.0" stroke="#94a3b8" stroke-width="2" marker-end="url(#rfarrow)"/><rect x="40.0" y="80.0" width="232" height="68.0" rx="10" fill="#7c3aed"/><text x="156.0" y="103.0" text-anchor="middle" font-family="ui-sans-serif, system-ui, -apple-system, sans-serif" font-size="13" font-weight="500" fill="#ffffff">Choose the event to</text><text x="156.0" y="119.0" text-anchor="middle" font-family="ui-sans-serif, system-ui, -apple-system, sans-serif" font-size="13" font-weight="500" fill="#ffffff">simulate, or create a new</text><text x="156.0" y="135.0" text-anchor="middle" font-family="ui-sans-serif, system-ui, -apple-system, sans-serif" font-size="13" font-weight="500" fill="#ffffff">one.</text><rect x="40.0" y="174.0" width="232" height="68.0" rx="10" fill="#7c3aed"/><text x="156.0" y="197.0" text-anchor="middle" font-family="ui-sans-serif, system-ui, -apple-system, sans-serif" font-size="13" font-weight="500" fill="#ffffff">Set up the scenario: the</text><text x="156.0" y="213.0" text-anchor="middle" font-family="ui-sans-serif, system-ui, -apple-system, sans-serif" font-size="13" font-weight="500" fill="#ffffff">event, the volume, and the</text><text x="156.0" y="229.0" text-anchor="middle" font-family="ui-sans-serif, system-ui, -apple-system, sans-serif" font-size="13" font-weight="500" fill="#ffffff">response to test.</text><rect x="40.0" y="268.0" width="232" height="52.0" rx="10" fill="#7c3aed"/><text x="156.0" y="291.0" text-anchor="middle" font-family="ui-sans-serif, system-ui, -apple-system, sans-serif" font-size="13" font-weight="500" fill="#ffffff">Choose an action plan, or</text><text x="156.0" y="307.0" text-anchor="middle" font-family="ui-sans-serif, system-ui, -apple-system, sans-serif" font-size="13" font-weight="500" fill="#ffffff">create a new one.</text><rect x="40.0" y="346.0" width="232" height="52.0" rx="10" fill="#7c3aed"/><text x="156.0" y="369.0" text-anchor="middle" font-family="ui-sans-serif, system-ui, -apple-system, sans-serif" font-size="13" font-weight="500" fill="#ffffff">Exit to return to live</text><text x="156.0" y="385.0" text-anchor="middle" font-family="ui-sans-serif, system-ui, -apple-system, sans-serif" font-size="13" font-weight="500" fill="#ffffff">data.</text><rect x="342.0" y="350.0" width="232" height="44.0" rx="10" fill="#f59e0b"/><text x="458.0" y="377.0" text-anchor="middle" font-family="ui-sans-serif, system-ui, -apple-system, sans-serif" font-size="13" font-weight="500" fill="#ffffff">Run it.</text><rect x="644.0" y="350.0" width="232" height="44.0" rx="10" fill="#0ea5e9"/><text x="760.0" y="377.0" text-anchor="middle" font-family="ui-sans-serif, system-ui, -apple-system, sans-serif" font-size="13" font-weight="500" fill="#ffffff">Read the crowd forecast.</text><rect x="946.0" y="346.0" width="232" height="52.0" rx="10" fill="#10b981"/><text x="1062.0" y="369.0" text-anchor="middle" font-family="ui-sans-serif, system-ui, -apple-system, sans-serif" font-size="13" font-weight="500" fill="#ffffff">Implement a plan from the</text><text x="1062.0" y="385.0" text-anchor="middle" font-family="ui-sans-serif, system-ui, -apple-system, sans-serif" font-size="13" font-weight="500" fill="#ffffff">right panel.</text></svg>