<svg width="82" height="98" viewBox="0 0 82 98" fill="none" xmlns="http://www.w3.org/2000/svg">
<path d="M46.6335 49.2165C46.8159 49.4565 47.0015 49.7012 47.1839 49.9541C46.6511 50.1135 46.1103 50.252 45.5615 50.3712C45.5087 50.3019 45.4575 50.2343 45.4047 50.1634C44.9151 49.5209 44.4095 48.8558 44.0223 48.0957C42.7744 45.6448 43.0464 42.8863 43.3088 40.2195C43.5696 37.5721 43.8144 35.0729 42.6192 33.0181C41.6112 31.287 39.7792 30.2338 37.8385 29.1178C35.7873 27.9391 33.6642 26.72 32.4594 24.5928C31.7474 23.3367 31.4738 21.955 31.2098 20.62C31.0482 19.8004 30.8946 19.0258 30.6482 18.285C29.8642 15.9307 28.1235 13.9741 26.3347 12.3268C26.7235 11.9773 27.1235 11.6424 27.5363 11.3219C29.4226 13.0804 31.2498 15.1867 32.1154 17.7907C32.3922 18.6248 32.5634 19.4847 32.7282 20.3157C32.9794 21.5862 33.2178 22.786 33.805 23.8214C34.8001 25.5783 36.6497 26.6411 38.6065 27.7651C40.6384 28.9326 42.7392 30.1404 43.9552 32.2306C45.4047 34.7218 45.1215 37.5947 44.8495 40.3725C44.5983 42.9281 44.3599 45.3404 45.3999 47.384C45.7231 48.0201 46.1647 48.6014 46.6335 49.2149V49.2165ZM38.1201 33.9505C37.6577 33.6574 37.1745 33.4223 36.7089 33.1952C36.0497 32.8748 35.4273 32.572 34.9281 32.1404C33.6546 31.0374 32.6402 29.4512 32.0738 27.6733C31.0722 24.5348 29.3666 21.1112 24.2995 19.5121C23.3268 19.2045 22.2964 19.0258 21.3364 18.8825C21.0948 19.364 20.8708 19.8567 20.6644 20.3576C21.73 20.5105 22.8228 20.678 23.8355 20.9985C27.3747 22.1161 29.3346 24.187 30.5986 28.1484C31.2514 30.1968 32.4306 32.0325 33.9185 33.3208C34.5713 33.8861 35.3153 34.2484 36.0353 34.5978C36.4833 34.8152 36.9057 35.0214 37.2945 35.2677C39.0736 36.3966 40.1632 38.5738 40.0064 40.6849C39.8768 42.4241 39.0144 44.0087 38.1025 45.6867C37.9201 46.0216 37.7393 46.3566 37.5633 46.6899C37.0385 47.6931 36.4513 48.9669 36.1809 50.3438C36.6833 50.4549 37.1905 50.5499 37.7057 50.6256C37.8977 49.6771 38.3025 48.6175 38.9328 47.4146C39.104 47.0877 39.2816 46.7608 39.4608 46.4323C40.4112 44.6834 41.3952 42.8734 41.5504 40.7993C41.7488 38.1293 40.3712 35.3756 38.1217 33.9473L38.1201 33.9505ZM50.147 34.3901L50.059 34.3418C49.3022 33.9376 48.3599 33.4335 47.9231 32.3015C47.7871 31.9504 47.6879 31.5317 47.5839 31.0889C47.4895 30.6879 47.3903 30.2741 47.2591 29.8908C46.7455 28.398 45.6111 27.3883 44.5151 26.4108C43.7328 25.7136 42.9936 25.0549 42.5024 24.253C41.84 23.1724 41.584 21.7441 41.336 20.3624C40.9424 18.1691 40.536 15.9017 38.5329 14.6585C38.0241 14.3429 37.4865 14.1529 36.9665 13.9677C36.4161 13.7729 35.8961 13.5893 35.4993 13.2801C35.1169 12.9806 34.8081 12.5264 34.5009 12.0498C33.7506 10.8839 33.0482 9.6858 32.397 8.46194C31.9202 8.66484 31.4514 8.88546 30.9922 9.12057C31.6754 10.4105 32.413 11.6714 33.2034 12.8968C33.5858 13.491 33.9777 14.0611 34.5521 14.5104C35.1457 14.9742 35.8113 15.2093 36.4545 15.438C36.9169 15.6022 37.3553 15.7568 37.7217 15.9839C39.1376 16.8631 39.4512 18.6136 39.8144 20.6394C40.088 22.1644 40.3696 23.7409 41.1872 25.0726C41.7984 26.0694 42.6592 26.836 43.4912 27.5783C44.4815 28.4608 45.4159 29.295 45.7983 30.4013C45.9055 30.7105 45.9903 31.0696 46.0799 31.4496C46.1919 31.9247 46.3087 32.4174 46.4831 32.8667C47.1295 34.5382 48.5103 35.2774 49.3358 35.7186L49.4222 35.7653C52.6606 37.5029 52.1166 40.3081 51.4862 43.5578C51.2286 44.8863 50.963 46.2599 51.0158 47.5241C51.0286 47.8365 51.0606 48.1086 51.107 48.3518C51.6046 48.0893 52.091 47.8075 52.5646 47.508C52.5646 47.4902 52.563 47.4758 52.5614 47.458C52.5166 46.3775 52.7534 45.152 53.0046 43.8557C53.6254 40.6543 54.3965 36.6703 50.1502 34.3917L50.147 34.3901ZM37.5489 11.6955C37.9537 11.921 38.4129 12.1754 38.96 12.4975C40.544 13.4299 41.7472 15.2318 42.2592 17.4428C42.3328 17.7633 42.3904 18.0918 42.4512 18.4396C42.616 19.3849 42.7856 20.3624 43.32 21.2529C43.7792 22.0178 44.5727 22.5863 45.4415 22.7731C45.6463 22.8165 45.8511 22.8391 46.0527 22.8391C46.5951 22.8391 47.1103 22.6813 47.5471 22.3753C49.6702 20.889 48.4239 18.6603 47.5135 17.0322C46.9983 16.1127 46.4671 15.161 46.4335 14.3993C46.4223 14.1481 46.4303 13.8888 46.4383 13.615C46.4527 13.1497 46.4655 12.6698 46.3903 12.1673C46.1055 10.2687 44.7519 8.9998 43.4448 7.77271C43.0864 7.43615 42.7392 7.11086 42.4192 6.77913C41.9264 6.74531 41.4288 6.7276 40.928 6.7276C40.7376 6.7276 40.5472 6.73082 40.3568 6.73565C40.4368 6.84838 40.52 6.95949 40.6064 7.06899C41.1392 7.74212 41.7744 8.33794 42.3888 8.91445C43.5536 10.0079 44.6543 11.0401 44.8591 12.4025C44.9135 12.7648 44.9023 13.1561 44.8895 13.5716C44.8815 13.8614 44.8719 14.1609 44.8863 14.4701C44.9359 15.6038 45.5599 16.7198 46.1647 17.7987C47.2831 19.7988 47.4975 20.5138 46.6639 21.0983C46.3503 21.3173 46.0015 21.3028 45.7631 21.2513C45.3119 21.1547 44.8815 20.8471 44.6431 20.4493C44.2575 19.8084 44.1199 19.0145 43.9743 18.1739C43.9136 17.8213 43.8496 17.4557 43.7648 17.0918C43.1568 14.4653 41.6896 12.3026 39.7392 11.1544C39.176 10.8227 38.7073 10.5634 38.2945 10.3348C36.4625 9.31703 36.3009 9.22524 35.8609 7.32182C35.3569 7.44259 34.8593 7.57947 34.3681 7.73245C34.9585 10.1818 35.4913 10.557 37.5457 11.6971L37.5489 11.6955ZM55.8525 27.4109L55.8141 27.3271C54.5037 24.4575 52.9678 22.9583 51.251 22.8681C49.5118 22.7779 48.3839 24.0066 48.0703 25.1902C47.4463 27.369 48.4895 29.7056 49.3454 30.7459C49.9966 31.5382 50.7374 32.1646 51.4526 32.7701C51.611 32.9054 51.7726 33.0406 51.9326 33.1791C53.3262 34.3804 54.2045 35.9425 54.7757 38.2469C55.3101 40.4015 55.8157 42.4354 55.9261 44.6061C55.9309 44.6947 55.9341 44.7881 55.9357 44.8863C56.4397 44.4097 56.9229 43.9088 57.3805 43.3855C57.1789 41.5014 56.7389 39.7268 56.2781 37.8684C55.6237 35.2307 54.5933 33.4191 52.939 31.9939C52.7742 31.8522 52.611 31.7137 52.4478 31.5768C51.7534 30.9907 51.099 30.4367 50.5374 29.7523C49.8702 28.9391 49.1246 27.1178 49.5582 25.6137L49.563 25.5944C49.6798 25.1483 50.1262 24.4188 51.0702 24.4188C51.1022 24.4188 51.1358 24.4188 51.1694 24.4221C51.923 24.4623 53.0974 25.1113 54.4077 27.9777L54.4493 28.0663C57.0381 33.6783 59.5452 35.6864 61.422 36.6639C61.6076 36.1744 61.7772 35.6751 61.9276 35.1695C60.2604 34.2484 58.1533 32.3981 55.8525 27.4093V27.4109ZM62.8028 27.2369C62.3852 26.6282 61.9148 26.0437 61.3836 25.501C60.11 24.1982 58.5869 23.2224 57.1133 22.2787C56.3069 21.7618 55.4717 21.2271 54.7069 20.6539C53.291 19.5926 52.3166 18.5314 51.7278 17.4074C51.2094 16.417 50.9422 15.3091 50.659 14.1336L50.6542 14.111C50.2286 12.3477 49.7038 10.1689 48.7231 8.16242C48.0143 7.89188 47.2879 7.65516 46.5455 7.4587C47.8383 9.37823 48.5039 11.797 49.1502 14.4798L49.155 14.5007C49.4478 15.7149 49.7502 16.9726 50.3582 18.1337C51.0574 19.4686 52.1774 20.7022 53.7838 21.9035C54.5949 22.5106 55.4525 23.0613 56.2829 23.5927C57.7485 24.5316 59.1309 25.4173 60.2812 26.5928C61.2892 27.6234 62.1196 28.8843 62.7996 30.4174C62.838 29.8811 62.8588 29.3417 62.8588 28.7958C62.8588 28.2499 62.8396 27.7523 62.8028 27.2369ZM60.126 21.9051C60.1884 21.9486 60.2764 22.013 60.3852 22.0919C60.9724 22.5202 61.5788 22.947 62.1804 23.3335C61.9724 22.5106 61.7164 21.707 61.4204 20.9228C61.3772 20.8922 61.3356 20.8616 61.2924 20.831C61.1756 20.7456 61.0812 20.678 61.014 20.6297C59.3004 19.4236 56.1949 15.6859 55.4973 14.3622C54.9645 13.3477 54.6045 12.3396 54.3069 11.309C53.6782 10.8211 53.0238 10.367 52.3438 9.94829C52.7646 11.6214 53.2142 13.3493 54.1293 15.0901C54.9245 16.6022 58.1885 20.5395 60.126 21.9051ZM35.9025 41.4354C35.2881 39.7058 34.3633 38.4755 34.3217 38.4224C33.797 37.7348 33.309 37.3016 32.8786 36.9183C32.3234 36.424 31.8418 35.9972 31.3266 35.0697C31.0018 34.4851 30.9618 33.8973 30.917 33.2145C30.8626 32.4013 30.8002 31.4802 30.197 30.5543C29.1522 28.9487 27.4003 28.6218 25.7075 28.3062C24.4643 28.0743 23.29 27.8553 22.4484 27.1564C22.2036 26.9535 21.85 26.588 21.474 26.2015C20.8308 25.538 20.146 24.8327 19.4564 24.3142C19.3364 24.9019 19.2404 25.4962 19.1668 26.1C19.5764 26.4753 19.9892 26.9004 20.3668 27.2885C20.7892 27.7249 21.1556 28.1017 21.4644 28.3577C22.6148 29.3127 24.0435 29.5784 25.4259 29.8377C26.9251 30.1179 28.2211 30.3594 28.9042 31.4077C29.285 31.9923 29.3266 32.6074 29.3746 33.3192C29.4258 34.0777 29.4834 34.9392 29.9778 35.8281C30.6226 36.9892 31.2498 37.5464 31.8562 38.0858C32.2706 38.4546 32.6626 38.8024 33.0946 39.3693C33.1266 39.4112 36.2753 43.6335 34.1777 46.896C34.0017 47.1714 33.8209 47.3195 33.6434 47.3405C33.3522 47.3727 32.973 47.1022 32.8402 46.9717C32.1826 46.2954 31.4754 43.2566 31.1858 41.313L31.1794 41.2791C30.5586 38.0794 27.5603 36.7718 25.1507 35.7186L24.7491 35.5431C22.4132 34.5141 20.1348 33.2854 19.1444 31.287C19.2644 32.3578 19.4596 33.4046 19.7252 34.4239C20.9812 35.4819 22.546 36.2742 24.1299 36.9715L24.5363 37.1502C26.8227 38.1486 29.1858 39.1809 29.6594 41.5642C29.7954 42.4692 30.501 46.7946 31.7394 48.0651C31.829 48.1553 32.5922 48.9025 33.5954 48.9025C33.6626 48.9025 33.7314 48.8993 33.8002 48.8912C34.2593 48.8429 34.9249 48.6062 35.4785 47.7431C36.6033 45.9942 36.7505 43.8138 35.9057 41.4354H35.9025ZM20.6164 37.1164C20.8788 37.767 21.1716 38.4015 21.4932 39.0182C24.0563 39.9554 26.7059 41.9603 26.7811 45.6544C27.2915 46.0892 27.8211 46.4999 28.3683 46.8864C28.3507 46.4902 28.3347 46.0909 28.3299 45.6995C28.2723 40.9136 24.6323 38.0681 20.6148 37.1164H20.6164Z" fill="#BD9A5F"/>
<path d="M17.0741 67.8338C16.0997 65.37 15.6949 64.5004 13.615 64.2588C16.0629 63.9625 17.2213 62.6839 17.2213 60.9802C17.2213 59.4793 16.1637 58.0171 12.3814 58.0171H8.51746V58.2764C9.12544 58.4793 9.25344 59.0349 9.25344 60.3698V68.6293C9.25344 69.9627 9.12544 70.5182 8.51746 70.7227V70.982H11.9398V70.7227C11.3318 70.5182 11.2038 69.9627 11.2038 68.6293V64.5503H12.2902C13.9093 64.5503 14.0021 65.2395 15.1061 67.9433C15.9893 70.1108 16.3573 71.1108 17.8853 71.1108C18.1989 71.1108 18.7861 71.0915 19.21 70.9804V70.7211C19.1172 70.7388 19.026 70.7388 18.9349 70.7388C18.2533 70.7388 18.0517 70.2944 17.0757 67.8306L17.0741 67.8338ZM11.2054 63.9657V58.6596C11.4822 58.6226 11.7574 58.6049 12.015 58.6049C14.3157 58.6049 15.2725 59.9254 15.2725 61.4246C15.2725 62.9238 14.4805 63.9657 12.383 63.9657H11.2054Z" fill="white"/>
<path d="M72.7466 68.6293V65.0543C72.7466 62.795 71.697 61.5905 69.4699 61.5905C67.7947 61.5905 66.3771 62.4423 65.3467 63.7209L65.5307 63.8884C66.4699 62.758 67.4811 62.3135 68.5131 62.3135C69.8746 62.3135 70.8682 62.832 70.905 64.6662L68.8619 65.2588C66.5803 65.9078 64.6476 66.8337 64.6476 68.742C64.6476 70.2976 65.7883 71.1688 67.1499 71.1688C69.0635 71.1688 70.3898 69.5536 70.905 67.4038V70.2428C70.905 70.7243 71.1626 70.9836 71.641 70.9836H73.481V70.7243C72.873 70.5198 72.745 69.9642 72.745 68.6309L72.7466 68.6293ZM70.9066 65.5905C70.8874 67.2573 69.8762 69.8145 68.0731 69.8145C67.2267 69.8145 66.3611 69.3137 66.3611 68.0914C66.3611 66.5535 68.0731 66.0688 68.9371 65.8273L70.9066 65.2524V65.5905Z" fill="white"/>
<path d="M24.5076 69.6663C22.17 69.6663 20.698 68.0882 20.698 65.3796H27.7091C27.7091 63.2942 26.3843 61.5905 23.8996 61.5905C21.4148 61.5905 19.0597 63.5535 19.0597 66.7017C19.0597 69.8499 21.378 71.1656 23.4212 71.1656C25.4643 71.1656 27.0099 69.684 27.8563 68.3877L27.6915 68.2025C26.9187 69.0737 25.8691 69.6663 24.5076 69.6663ZM23.33 62.3054C24.554 62.3054 25.5363 63.0623 25.8195 64.795H20.7828C21.0372 63.1235 22.3156 62.3054 23.33 62.3054Z" fill="white"/>
<path d="M60.1453 69.6663C57.8077 69.6663 56.3357 68.0882 56.3357 65.3796H63.3468C63.3468 63.2942 62.022 61.5905 59.5373 61.5905C57.0525 61.5905 54.6974 63.5535 54.6974 66.7017C54.6974 69.8499 57.0157 71.1656 59.0589 71.1656C61.102 71.1656 62.6476 69.684 63.494 68.3877L63.3292 68.2025C62.5564 69.0737 61.5068 69.6663 60.1453 69.6663ZM58.9677 62.3054C60.1916 62.3054 61.174 63.0623 61.4572 64.795H56.4205C56.6749 63.1235 57.9533 62.3054 58.9677 62.3054Z" fill="white"/>
<path d="M38.0785 68.6293V56.1475L37.8945 55.9994L35.4657 57.0735V57.3327C35.9265 57.5372 36.2017 57.7224 36.2017 58.8142V62.0736C35.6497 61.795 35.0049 61.6098 34.2321 61.6098C31.0306 61.6098 29.0978 63.8691 29.0978 66.7033C29.0978 68.9997 30.6802 71.1672 33.0178 71.2042C34.3969 71.2413 35.5025 70.2783 36.2017 69.4634V70.2412C36.2017 70.7227 36.4593 70.982 36.9377 70.982H38.8144V70.7227C38.2065 70.5182 38.0785 69.9627 38.0785 68.6293ZM36.2017 69.0737C35.6689 69.6486 34.9681 70.0931 34.1585 70.0931C31.509 70.0931 30.901 66.9626 30.901 65.2041C30.901 64.1284 31.5122 62.3216 33.4594 62.3216C34.8001 62.3216 36.2017 63.7773 36.2017 64.9819V69.0753V69.0737Z" fill="white"/>
<path d="M49.155 63.444C47.6831 62.8514 45.8239 62.1847 45.8239 60.5357C45.8239 59.146 47.3055 58.5244 48.4559 58.5244C50.1598 58.5244 51.8798 59.4294 52.5598 61.1476L52.7614 61.0735L52.6878 58.6661C51.731 58.1846 50.5166 57.8883 49.155 57.8883C46.2655 57.8883 44.4255 59.315 44.4255 61.6114C44.4255 63.7596 46.0079 64.3892 47.9039 65.1864C49.3758 65.779 51.7502 66.6308 51.7502 68.4457C51.7502 69.8274 50.3278 70.457 49.3022 70.457C47.2271 70.457 45.2655 69.2815 44.4447 67.0383L44.2047 67.0753L44.2783 69.8531C45.2175 70.5569 46.9279 71.1688 48.8239 71.1688C50.9406 71.1688 53.259 69.7613 53.259 67.2234C53.259 65.0012 51.0318 64.167 49.155 63.4456V63.444Z" fill="white"/>
<path d="M57.0364 87.5911V85.2883C56.6188 87.0323 55.5421 88.3431 53.9885 88.3431C52.8829 88.3431 51.9565 87.6362 51.9565 86.3737C51.9565 84.8245 53.5245 84.0741 55.3773 83.5475L57.0348 83.066C57.0044 81.5781 56.1981 81.1561 55.0925 81.1561C54.2557 81.1561 53.4349 81.5169 52.6733 82.4348L52.5245 82.2995C53.3613 81.2624 54.5117 80.57 55.8701 80.57C57.678 80.57 58.5292 81.5475 58.5292 83.3816V86.2835C58.5292 87.3656 58.6332 87.8165 59.126 87.9824V88.1933H57.6316C57.2428 88.1933 57.0348 87.9824 57.0348 87.5927M54.7357 87.2449C56.1997 87.2449 57.0204 85.1707 57.0364 83.8164V83.5427L55.4381 84.0081C54.7357 84.2029 53.3469 84.5974 53.3469 85.8455C53.3469 86.8374 54.0493 87.2433 54.7357 87.2433" fill="white"/>
<path d="M30.2642 87.9953C30.7586 87.8294 30.8626 87.3769 30.8626 86.2931V78.309C30.8626 77.4201 30.6386 77.2704 30.2642 77.1045V76.8936L32.2402 76.0208L32.3905 76.1415V86.2931C32.3905 87.3769 32.4945 87.8294 32.9889 87.9953V88.2062H30.2658V87.9953H30.2642Z" fill="white"/>
<path d="M60.2156 87.9953C60.71 87.8294 60.814 87.3769 60.814 86.2931V78.309C60.814 77.4201 60.59 77.2704 60.2156 77.1045V76.8936L62.1916 76.0208L62.342 76.1415V86.2931C62.342 87.3769 62.446 87.8294 62.9404 87.9953V88.2062H60.2172V87.9953H60.2156Z" fill="white"/>
<path d="M26.5891 83.4911V83.7021C27.2323 83.8825 27.3667 84.3044 27.3667 85.4799V86.8503C27.0371 87.5122 26.1379 87.8359 25.1971 87.8359C24.2563 87.8359 23.1107 87.4397 22.3636 86.6909C21.2356 85.4815 20.6132 83.6135 20.6324 81.8937C20.6596 79.454 22.0676 77.9999 24.1347 77.9999C25.6611 77.9999 27.2611 78.9226 27.8162 80.3268L27.9954 80.2817L27.9362 78.293C27.1587 77.7664 25.6163 77.5554 24.6883 77.5554C21.3204 77.5554 19.0612 79.9951 19.0612 82.8873C19.0612 86.1853 21.2612 88.3544 24.7027 88.3544C25.9443 88.3544 27.7858 87.736 28.9074 86.2609V83.4895H26.5875L26.5891 83.4911Z" fill="white"/>
<path d="M37.9793 80.57C35.9297 80.57 33.9841 82.1964 33.9841 84.6361C33.9841 87.1965 36.0337 88.356 37.9793 88.356C39.7456 88.356 41.96 86.8954 41.96 84.3189C41.96 81.7423 39.8352 80.5684 37.9793 80.5684M38.5024 87.8664C37.4545 87.8664 36.6337 87.1144 36.2465 86.4252C35.7841 85.5991 35.4801 84.438 35.4801 83.5056C35.4801 82.5088 35.9153 81.3333 36.9745 81.0724C38.0529 80.8051 39.128 81.6376 39.648 82.533C40.152 83.401 40.4496 84.5346 40.4496 85.4654C40.4496 86.1869 40.1184 87.868 38.504 87.868" fill="white"/>
<path d="M47.4079 80.57C46.5551 80.57 45.6719 80.9774 44.9231 81.4589V76.1415L44.7727 76.0208L42.7968 76.8936V77.1045C43.1711 77.2704 43.3951 77.4201 43.3951 78.309V88.2046H43.5599L44.1743 87.2255C44.7279 87.8584 45.6863 88.3399 46.7631 88.3399C49.2478 88.3399 50.819 86.5025 50.819 84.1981C50.819 82.3301 49.5326 80.5684 47.4063 80.5684M47.3487 88.0259C46.2111 88.0259 44.9247 86.7311 44.9247 85.5556V81.8341C45.4527 81.4959 46.0239 81.3317 46.4959 81.3317C48.7006 81.3317 49.355 84.3044 49.355 85.3463C49.355 86.7167 48.9358 88.0275 47.3503 88.0275" fill="white"/>
</svg>
