<svg width="44" height="44" viewBox="0 0 44 44" fill="none" xmlns="http://www.w3.org/2000/svg">
<path d="M27.4891 42.4889C27.6715 42.7289 27.8571 42.9736 28.0395 43.2265C27.5067 43.3859 26.9659 43.5244 26.4171 43.6436C26.3643 43.5743 26.3131 43.5067 26.2603 43.4358C25.7707 42.7933 25.2651 42.1282 24.8779 41.3681C23.63 38.9172 23.902 36.1587 24.1644 33.4919C24.4252 30.8445 24.67 28.3453 23.4748 26.2905C22.4668 24.5594 20.6348 23.5062 18.6941 22.3902C16.6429 21.2115 14.5198 19.9924 13.315 17.8652C12.603 16.6091 12.3294 15.2274 12.0654 13.8924C11.9038 13.0728 11.7502 12.2982 11.5038 11.5574C10.7198 9.2031 8.9791 7.2465 7.1903 5.5992C7.5791 5.2497 7.9791 4.9148 8.3919 4.5943C10.2782 6.3528 12.1054 8.4591 12.971 11.0631C13.2478 11.8972 13.419 12.7571 13.5838 13.5881C13.835 14.8586 14.0734 16.0584 14.6606 17.0938C15.6557 18.8507 17.5053 19.9135 19.4621 21.0375C21.494 22.205 23.5948 23.4128 24.8108 25.503C26.2603 27.9942 25.9771 30.8671 25.7051 33.6449C25.4539 36.2005 25.2155 38.6128 26.2555 40.6564C26.5787 41.2925 27.0203 41.8738 27.4891 42.4873V42.4889ZM18.9757 27.2229C18.5133 26.9298 18.0301 26.6947 17.5645 26.4676C16.9053 26.1472 16.2829 25.8444 15.7837 25.4128C14.5102 24.3098 13.4958 22.7236 12.9294 20.9457C11.9278 17.8072 10.2222 14.3836 5.1551 12.7845C4.1824 12.4769 3.152 12.2982 2.192 12.1549C1.9504 12.6364 1.7264 13.1291 1.52 13.63C2.5856 13.7829 3.6784 13.9504 4.6911 14.2709C8.2303 15.3885 10.1902 17.4594 11.4542 21.4208C12.107 23.4692 13.2862 25.3049 14.7741 26.5932C15.4269 27.1585 16.1709 27.5208 16.8909 27.8702C17.3389 28.0876 17.7613 28.2938 18.1501 28.5401C19.9292 29.669 21.0188 31.8462 20.862 33.9573C20.7324 35.6965 19.87 37.2811 18.9581 38.9591C18.7757 39.294 18.5949 39.629 18.4189 39.9623C17.8941 40.9655 17.3069 42.2393 17.0365 43.6162C17.5389 43.7273 18.0461 43.8223 18.5613 43.898C18.7533 42.9495 19.1581 41.8899 19.7884 40.687C19.9596 40.3601 20.1372 40.0332 20.3164 39.7047C21.2668 37.9558 22.2508 36.1458 22.406 34.0717C22.6044 31.4017 21.2268 28.648 18.9773 27.2197L18.9757 27.2229ZM31.0026 27.6625L30.9146 27.6142C30.1578 27.21 29.2155 26.7059 28.7787 25.5739C28.6427 25.2228 28.5435 24.8041 28.4395 24.3613C28.3451 23.9603 28.2459 23.5465 28.1147 23.1632C27.6011 21.6704 26.4667 20.6607 25.3707 19.6832C24.5884 18.986 23.8492 18.3273 23.358 17.5254C22.6956 16.4448 22.4396 15.0165 22.1916 13.6348C21.798 11.4415 21.3916 9.1741 19.3885 7.9309C18.8797 7.6153 18.3421 7.4253 17.8221 7.2401C17.2717 7.0453 16.7517 6.8617 16.3549 6.5525C15.9725 6.253 15.6637 5.7988 15.3565 5.3222C14.6062 4.1563 13.9038 2.9582 13.2526 1.73434C12.7758 1.93724 12.307 2.15786 11.8478 2.39297C12.531 3.6829 13.2686 4.9438 14.059 6.1692C14.4414 6.7634 14.8333 7.3335 15.4077 7.7828C16.0013 8.2466 16.6669 8.4817 17.3101 8.7104C17.7725 8.8746 18.2109 9.0292 18.5773 9.2563C19.9932 10.1355 20.3068 11.886 20.67 13.9118C20.9436 15.4368 21.2252 17.0133 22.0428 18.345C22.654 19.3418 23.5148 20.1084 24.3468 20.8507C25.3371 21.7332 26.2715 22.5674 26.6539 23.6737C26.7611 23.9829 26.8459 24.342 26.9355 24.722C27.0475 25.1971 27.1643 25.6898 27.3387 26.1391C27.9851 27.8106 29.3659 28.5498 30.1914 28.991L30.2778 29.0377C33.5162 30.7753 32.9722 33.5805 32.3418 36.8302C32.0842 38.1587 31.8186 39.5323 31.8714 40.7965C31.8842 41.1089 31.9162 41.381 31.9626 41.6242C32.4602 41.3617 32.9466 41.0799 33.4202 40.7804C33.4202 40.7626 33.4186 40.7482 33.417 40.7304C33.3722 39.6499 33.609 38.4244 33.8602 37.1281C34.481 33.9267 35.2521 29.9427 31.0058 27.6641L31.0026 27.6625ZM18.4045 4.9679C18.8093 5.1934 19.2685 5.4478 19.8156 5.7699C21.3996 6.7023 22.6028 8.5042 23.1148 10.7152C23.1884 11.0357 23.246 11.3642 23.3068 11.712C23.4716 12.6573 23.6412 13.6348 24.1756 14.5253C24.6348 15.2902 25.4283 15.8587 26.2971 16.0455C26.5019 16.0889 26.7067 16.1115 26.9083 16.1115C27.4507 16.1115 27.9659 15.9537 28.4027 15.6477C30.5258 14.1614 29.2795 11.9327 28.3691 10.3046C27.8539 9.3851 27.3227 8.4334 27.2891 7.6717C27.2779 7.4205 27.2859 7.1612 27.2939 6.8874C27.3083 6.4221 27.3211 5.9422 27.2459 5.4397C26.9611 3.5411 25.6075 2.2722 24.3004 1.04511C23.942 0.70855 23.5948 0.38326 23.2748 0.0515299C22.782 0.0177099 22.2844 0 21.7836 0C21.5932 0 21.4028 0.00321996 21.2124 0.00804996C21.2924 0.12078 21.3756 0.23189 21.462 0.34139C21.9948 1.01452 22.63 1.61034 23.2444 2.18685C24.4092 3.2803 25.5099 4.3125 25.7147 5.6749C25.7691 6.0372 25.7579 6.4285 25.7451 6.844C25.7371 7.1338 25.7275 7.4333 25.7419 7.7425C25.7915 8.8762 26.4155 9.9922 27.0203 11.0711C28.1387 13.0712 28.3531 13.7862 27.5195 14.3707C27.2059 14.5897 26.8571 14.5752 26.6187 14.5237C26.1675 14.4271 25.7371 14.1195 25.4987 13.7217C25.1131 13.0808 24.9755 12.2869 24.8299 11.4463C24.7692 11.0937 24.7052 10.7281 24.6204 10.3642C24.0124 7.7377 22.5452 5.575 20.5948 4.4268C20.0316 4.0951 19.5629 3.8358 19.1501 3.6072C17.3181 2.58943 17.1565 2.49764 16.7165 0.59422C16.2125 0.71499 15.7149 0.85187 15.2237 1.00485C15.8141 3.4542 16.3469 3.8294 18.4013 4.9695L18.4045 4.9679ZM36.7081 20.6833L36.6697 20.5995C35.3593 17.7299 33.8234 16.2307 32.1066 16.1405C30.3674 16.0503 29.2395 17.279 28.9259 18.4626C28.3019 20.6414 29.3451 22.978 30.201 24.0183C30.8522 24.8106 31.593 25.437 32.3082 26.0425C32.4666 26.1778 32.6282 26.313 32.7882 26.4515C34.1818 27.6528 35.0601 29.2149 35.6313 31.5193C36.1657 33.6739 36.6713 35.7078 36.7817 37.8785C36.7865 37.9671 36.7897 38.0605 36.7913 38.1587C37.2953 37.6821 37.7785 37.1812 38.2361 36.6579C38.0345 34.7738 37.5945 32.9992 37.1337 31.1408C36.4793 28.5031 35.4489 26.6915 33.7946 25.2663C33.6298 25.1246 33.4666 24.9861 33.3034 24.8492C32.609 24.2631 31.9546 23.7091 31.393 23.0247C30.7258 22.2115 29.9802 20.3902 30.4138 18.8861L30.4186 18.8668C30.5354 18.4207 30.9818 17.6912 31.9258 17.6912C31.9578 17.6912 31.9914 17.6912 32.025 17.6945C32.7786 17.7347 33.953 18.3837 35.2633 21.2501L35.3049 21.3387C37.8937 26.9507 40.4008 28.9588 42.2776 29.9363C42.4632 29.4468 42.6328 28.9475 42.7832 28.4419C41.116 27.5208 39.0089 25.6705 36.7081 20.6817V20.6833ZM43.6584 20.5093C43.2408 19.9006 42.7704 19.3161 42.2392 18.7734C40.9656 17.4706 39.4425 16.4948 37.9689 15.5511C37.1625 15.0342 36.3273 14.4995 35.5625 13.9263C34.1466 12.865 33.1722 11.8038 32.5834 10.6798C32.065 9.6894 31.7978 8.5815 31.5146 7.406L31.5098 7.3834C31.0842 5.6201 30.5594 3.4413 29.5787 1.43482C28.8699 1.16428 28.1435 0.92756 27.4011 0.7311C28.6939 2.65063 29.3595 5.0694 30.0058 7.7522L30.0106 7.7731C30.3034 8.9873 30.6058 10.245 31.2138 11.4061C31.913 12.741 33.033 13.9746 34.6394 15.1759C35.4505 15.783 36.3081 16.3337 37.1385 16.8651C38.6041 17.804 39.9865 18.6897 41.1368 19.8652C42.1448 20.8958 42.9752 22.1567 43.6552 23.6898C43.6936 23.1535 43.7144 22.6141 43.7144 22.0682C43.7144 21.5223 43.6952 21.0247 43.6584 20.5093ZM40.9816 15.1775C41.044 15.221 41.132 15.2854 41.2408 15.3643C41.828 15.7926 42.4344 16.2194 43.036 16.6059C42.828 15.783 42.572 14.9794 42.276 14.1952C42.2328 14.1646 42.1912 14.134 42.148 14.1034C42.0312 14.018 41.9368 13.9504 41.8696 13.9021C40.156 12.696 37.0505 8.9583 36.3529 7.6346C35.8201 6.6201 35.4601 5.612 35.1625 4.5814C34.5338 4.0935 33.8794 3.6394 33.1994 3.22069C33.6202 4.8938 34.0698 6.6217 34.9849 8.3625C35.7801 9.8746 39.0441 13.8119 40.9816 15.1775ZM16.7581 34.7078C16.1437 32.9782 15.2189 31.7479 15.1773 31.6948C14.6526 31.0072 14.1646 30.574 13.7342 30.1907C13.179 29.6964 12.6974 29.2696 12.1822 28.3421C11.8574 27.7575 11.8174 27.1697 11.7726 26.4869C11.7182 25.6737 11.6558 24.7526 11.0526 23.8267C10.0078 22.2211 8.2559 21.8942 6.5631 21.5786C5.3199 21.3467 4.1456 21.1277 3.304 20.4288C3.0592 20.2259 2.7056 19.8604 2.3296 19.4739C1.6864 18.8104 1.0016 18.1051 0.312 17.5866C0.192 18.1743 0.0959999 18.7686 0.0223999 19.3724C0.432 19.7477 0.844801 20.1728 1.2224 20.5609C1.6448 20.9973 2.0112 21.3741 2.32 21.6301C3.4704 22.5851 4.8991 22.8508 6.2815 23.1101C7.7807 23.3903 9.0767 23.6318 9.7598 24.6801C10.1406 25.2647 10.1822 25.8798 10.2302 26.5916C10.2814 27.3501 10.339 28.2116 10.8334 29.1005C11.4782 30.2616 12.1054 30.8188 12.7118 31.3582C13.1262 31.727 13.5182 32.0748 13.9502 32.6417C13.9822 32.6836 17.1309 36.9059 15.0333 40.1684C14.8573 40.4438 14.6765 40.5919 14.499 40.6129C14.2078 40.6451 13.8286 40.3746 13.6958 40.2441C13.0382 39.5678 12.331 36.529 12.0414 34.5854L12.035 34.5515C11.4142 31.3518 8.4159 30.0442 6.0063 28.991L5.6047 28.8155C3.2688 27.7865 0.9904 26.5578 0 24.5594C0.12 25.6302 0.315201 26.677 0.580801 27.6963C1.8368 28.7543 3.4016 29.5466 4.9855 30.2439L5.3919 30.4226C7.6783 31.421 10.0414 32.4533 10.515 34.8366C10.651 35.7416 11.3566 40.067 12.595 41.3375C12.6846 41.4277 13.4478 42.1749 14.451 42.1749C14.5182 42.1749 14.587 42.1717 14.6558 42.1636C15.1149 42.1153 15.7805 41.8786 16.3341 41.0155C17.4589 39.2666 17.6061 37.0862 16.7613 34.7078H16.7581ZM1.472 30.3888C1.7344 31.0394 2.0272 31.6739 2.3488 32.2906C4.9119 33.2278 7.5615 35.2327 7.6367 38.9268C8.1471 39.3616 8.6767 39.7723 9.2239 40.1588C9.2063 39.7626 9.1903 39.3633 9.1855 38.9719C9.1279 34.186 5.4879 31.3405 1.4704 30.3888H1.472Z" fill="#BD9A5F"/>
</svg>
